<svg xmlns="http://www.w3.org/2000/svg" viewBox="0 0 476.95 92.26"><defs><style>.cls-1{fill:#55f;}</style></defs><g id="Layer_2" data-name="Layer 2"><g id="Layer_1-2" data-name="Layer 1"><rect class="cls-1" x="2.25" y="40.69" width="10.87" height="10.87" transform="translate(-30.37 18.95) rotate(-45)"/><rect class="cls-1" x="11.86" y="31.08" width="10.87" height="10.87" transform="translate(-20.76 22.93) rotate(-45)"/><rect class="cls-1" x="21.47" y="21.47" width="10.87" height="10.87" transform="translate(-11.15 26.91) rotate(-45)"/><rect class="cls-1" x="40.69" y="2.25" width="10.87" height="10.87" transform="translate(8.07 34.87) rotate(-45)"/><rect class="cls-1" x="31.08" y="11.86" width="10.87" height="10.87" transform="translate(-1.54 30.89) rotate(-45)"/><rect class="cls-1" x="79.13" y="40.69" width="10.87" height="10.87" transform="translate(111.75 138.55) rotate(-135)"/><rect class="cls-1" x="69.52" y="31.08" width="10.87" height="10.87" transform="translate(102.14 115.34) rotate(-135)"/><rect class="cls-1" x="59.91" y="21.47" width="10.87" height="10.87" transform="translate(92.53 92.14) rotate(-135)"/><rect class="cls-1" x="50.3" y="11.86" width="10.87" height="10.87" transform="translate(82.92 68.94) rotate(-135)"/><rect class="cls-1" x="40.96" y="22.13" width="10.33" height="10.33" transform="translate(-5.79 40.61) rotate(-45)"/><rect class="cls-1" x="31.63" y="32.39" width="9.79" height="9.79" transform="translate(-15.67 36.74) rotate(-45)"/><rect class="cls-1" x="50.85" y="32.39" width="9.79" height="9.79" transform="translate(-10.04 50.33) rotate(-45)"/><rect class="cls-1" x="22.29" y="42.66" width="9.24" height="9.24" transform="translate(-25.55 32.88) rotate(-45)"/><rect class="cls-1" x="41.51" y="42.66" width="9.24" height="9.24" transform="translate(-19.92 46.47) rotate(-45)"/><rect class="cls-1" x="60.73" y="42.66" width="9.24" height="9.24" transform="translate(-14.29 60.06) rotate(-45)"/><rect class="cls-1" x="12.95" y="52.93" width="8.7" height="8.7" transform="translate(-35.43 29.01) rotate(-45)"/><rect class="cls-1" x="32.17" y="52.93" width="8.7" height="8.7" transform="translate(-29.8 42.6) rotate(-45)"/><rect class="cls-1" x="51.39" y="52.93" width="8.7" height="8.7" transform="translate(-24.17 56.19) rotate(-45)"/><rect class="cls-1" x="70.61" y="52.93" width="8.7" height="8.7" transform="translate(-18.55 69.78) rotate(-45)"/><rect class="cls-1" x="23.1" y="63.85" width="7.61" height="7.61" transform="translate(-39.96 38.84) rotate(-45)"/><rect class="cls-1" x="42.32" y="63.85" width="7.61" height="7.61" transform="translate(-34.33 52.43) rotate(-45)"/><rect class="cls-1" x="61.54" y="63.85" width="7.61" height="7.61" transform="translate(-28.7 66.02) rotate(-45)"/><rect class="cls-1" x="33.26" y="74.77" width="6.52" height="6.52" transform="translate(-44.48 48.68) rotate(-45)"/><rect class="cls-1" x="52.48" y="74.77" width="6.52" height="6.52" transform="translate(-38.85 62.27) rotate(-45)"/><rect class="cls-1" x="43.41" y="85.69" width="5.44" height="5.44" transform="translate(-49.01 58.51) rotate(-45)"/><path class="cls-1" d="M121.68,53.68v12.1h-6.3V26.39c6,0,12.21-.05,18.23-.05,18.79,0,18.85,27.23,0,27.34Zm0-5.79h11.93c10.41,0,10.35-15.76,0-15.76H121.68Z"/><path class="cls-1" d="M226.55,54.07c.51,4.22,4,7,9.06,7,2.81,0,6.36-1.07,8-3l3.77,3.65c-2.87,3.16-7.65,4.73-11.92,4.73-9.12,0-15-5.79-15-14.68,0-8.44,5.91-14.46,14.57-14.46,9,0,15,5.46,14,16.76Zm16.93-4.89c-.33-4.39-3.54-6.7-8.21-6.7-4.22,0-7.71,2.31-8.61,6.7Z"/><path class="cls-1" d="M254.28,65.78V26.45h27.85v6.13H260.58v12H279v5.85h-18.4V65.78Z"/><polygon class="cls-1" points="320.2 38.04 312.64 58.12 305.04 38.04 298.84 38.04 309.55 66.32 308.83 68.24 304.91 78.66 311.1 78.66 312.66 74.52 312.75 74.28 315.03 68.23 315.75 66.31 326.39 38.04 320.2 38.04"/><rect class="cls-1" x="287.41" y="26.42" width="6.3" height="39.35"/><path class="cls-1" d="M175.2,38v4.37c-1.75-3.14-5.51-5-9.44-5-8,0-14.34,5.18-14.34,14.46,0,9.45,6.13,14.68,14.23,14.63,3.42,0,7.69-1.68,9.55-5.21v4.48h6.3V38Zm-9,23.07c-5,0-9-3.49-9-9.23a8.73,8.73,0,0,1,9-9.17C178.19,42.71,178.19,61.11,166.21,61.11Z"/><path class="cls-1" d="M216.42,52a13.45,13.45,0,0,0-3.89-9.74l4.31-4.31-4.45-4.46-4.89,4.88a15,15,0,0,0-5.87-1.07c-7.54,0-15,4.92-15,14.7,0,7.72,3.62,13.8,13.94,14.15,6.76.23,9.81,2.7,9.81,6.8s-4.56,6-8.83,6c-4.62-.06-9-2.49-8.84-7.06h-5.79c-.23,8.13,5.57,13,14.63,13,7.42,0,14.84-4,14.84-11.92,0-3.5-1.63-7.54-7.31-9.55C214,61.36,216.42,57.15,216.42,52Zm-14.79,9a9.67,9.67,0,0,1-5.94-1.86,8.22,8.22,0,0,1-3.15-5.76,9.65,9.65,0,0,1-.08-1.34c0-6.1,4.44-9,9.17-9a9.39,9.39,0,0,1,1.19.07,8.72,8.72,0,0,1,5.84,3.07,9,9,0,0,1,2,5.87A8.68,8.68,0,0,1,201.63,60.94Z"/><rect class="cls-1" x="348.92" width="1.2" height="92.26"/><path class="cls-1" d="M375.35,49.25a9.36,9.36,0,0,0,2.32,2.14,5.69,5.69,0,0,0,3.06.76,6.46,6.46,0,0,0,1.82-.26A3.48,3.48,0,0,0,384,51.1a1.69,1.69,0,0,0,.56-1.3,1.79,1.79,0,0,0-1.15-1.69,12.93,12.93,0,0,0-3.22-.86A9.67,9.67,0,0,1,376,45.7a3.8,3.8,0,0,1-1.53-3.28,3.74,3.74,0,0,1,.85-2.46,5.45,5.45,0,0,1,2.26-1.59,9.2,9.2,0,0,1,6.75.19,5.75,5.75,0,0,1,2.42,2.09l-1.7,1.77a5.93,5.93,0,0,0-1.85-1.71,5.06,5.06,0,0,0-2.61-.66,5,5,0,0,0-2.52.59,1.89,1.89,0,0,0,.06,3.39,10.77,10.77,0,0,0,2.87.83,16.5,16.5,0,0,1,2.26.51,8.12,8.12,0,0,1,1.94.84,4.17,4.17,0,0,1,1.37,1.26,3.17,3.17,0,0,1,.5,1.83,4.56,4.56,0,0,1-.79,2.68,5.13,5.13,0,0,1-2.26,1.77,8.83,8.83,0,0,1-3.48.63,9.7,9.7,0,0,1-3.84-.73,7.66,7.66,0,0,1-3-2.4Z"/><path class="cls-1" d="M397.1,54.15V40.44H392V38.05h12.92v2.39h-5.29V54.15Z"/><path class="cls-1" d="M420.52,54.15l-1.66-3.91H411l-1.68,3.91h-2.55l6.88-16.1h2.69l6.83,16.1ZM413.71,44l-1.65,3.86h5.79l-1.7-4c-.2-.5-.4-1-.6-1.55s-.4-1.08-.6-1.64l-.62,1.7C414.13,43,413.92,43.48,413.71,44Z"/><path class="cls-1" d="M430.38,54.15V40.44h-5.15V38.05h12.92v2.39h-5.29V54.15Z"/><path class="cls-1" d="M457.82,38v9.34a7,7,0,0,1-.9,3.56,6.55,6.55,0,0,1-2.52,2.46,8.1,8.1,0,0,1-7.42,0,6.52,6.52,0,0,1-2.51-2.46,7,7,0,0,1-.91-3.56V38h2.49v9.18a4.61,4.61,0,0,0,.63,2.41,4.66,4.66,0,0,0,1.69,1.67,4.56,4.56,0,0,0,2.33.61,4.75,4.75,0,0,0,2.39-.61,4.67,4.67,0,0,0,1.72-1.67,4.53,4.53,0,0,0,.65-2.41V38Z"/><path class="cls-1" d="M465.2,49.25a9.19,9.19,0,0,0,2.32,2.14,5.65,5.65,0,0,0,3.06.76,6.39,6.39,0,0,0,1.81-.26,3.53,3.53,0,0,0,1.43-.79,1.68,1.68,0,0,0,.55-1.3,1.78,1.78,0,0,0-1.15-1.69,12.81,12.81,0,0,0-3.22-.86,9.63,9.63,0,0,1-4.12-1.55,3.8,3.8,0,0,1-1.53-3.28A3.74,3.74,0,0,1,465.2,40a5.41,5.41,0,0,1,2.25-1.59,9.2,9.2,0,0,1,6.75.19,5.72,5.72,0,0,1,2.43,2.09l-1.7,1.77a6,6,0,0,0-1.86-1.71,5.56,5.56,0,0,0-5.12-.07A1.89,1.89,0,0,0,468,44a10.74,10.74,0,0,0,2.88.83,16,16,0,0,1,2.25.51,8,8,0,0,1,1.94.84,4.07,4.07,0,0,1,1.37,1.26A3.18,3.18,0,0,1,477,49.3a4.56,4.56,0,0,1-.79,2.68,5.16,5.16,0,0,1-2.27,1.77,8.78,8.78,0,0,1-3.47.63,9.7,9.7,0,0,1-3.84-.73,7.69,7.69,0,0,1-3-2.4Z"/></g></g></svg>